<svg width="11" height="11" viewBox="0 0 11 11" fill="none" xmlns="http://www.w3.org/2000/svg">
<path d="M9.9 10.175C9.9 10.615 9.515 11 9.075 11H6.05C5.83 11 5.665 10.945 5.5 10.78L3.3 8.47L3.685 8.03C3.795 7.92 3.96 7.865 4.125 7.865H4.235L5.5 8.8V3.85C5.5 3.52 5.72 3.3 6.05 3.3C6.38 3.3 6.6 3.52 6.6 3.85V6.325L7.26 6.38L9.405 7.59C9.68 7.7 9.9 8.03 9.9 8.305V10.175ZM9.9 0H1.1C0.495 0 0 0.495 0 1.1V5.5C0 6.105 0.495 6.6 1.1 6.6H3.3V5.5H1.1V1.1H9.9V5.5H8.8V6.6H9.9C10.505 6.6 11 6.105 11 5.5V1.1C11 0.495 10.505 0 9.9 0Z" fill="black"/>
</svg>
