<svg width="18" height="16" viewBox="0 0 18 16" fill="none" xmlns="http://www.w3.org/2000/svg">
<path d="M1.8 0C0.801 0 0 0.749474 0 1.68421V10.1053C0 10.5519 0.189642 10.9803 0.527208 11.2962C0.864773 11.612 1.32261 11.7895 1.8 11.7895H9V16L11.7 13.4737L14.4 16V11.7895H16.2C16.6774 11.7895 17.1352 11.612 17.4728 11.2962C17.8104 10.9803 18 10.5519 18 10.1053V4.21053V2.52632V1.68421C18 1.23753 17.8104 0.809145 17.4728 0.493294C17.1352 0.177443 16.6774 0 16.2 0H12.6H1.8ZM9 1.68421L11.7 3.36842L14.4 1.68421V4.63158L17.1 5.89474L14.4 7.15789V10.1053L11.7 8.42105L9 10.1053V7.15789L6.3 5.89474L9 4.63158V1.68421ZM1.8 1.68421H6.3V3.36842H1.8V1.68421ZM1.8 5.05263H4.5V6.73684H1.8V5.05263ZM1.8 8.42105H6.3V10.1053H1.8V8.42105Z" fill="#AD7915"/>
</svg>
