<svg width="15" height="16" viewBox="0 0 15 16" fill="none" xmlns="http://www.w3.org/2000/svg">
<path d="M4.09091 7.27273H0V8.72727H4.09091V7.27273ZM5.57045 4.91636L4.125 3.37455L3.16364 4.4L4.60909 5.94182L5.57045 4.91636ZM8.18182 0H6.81818V4.36364H8.18182V0ZM11.8364 4.4L10.875 3.37455L9.42955 4.91636L10.3909 5.94182L11.8364 4.4ZM10.9091 7.27273V8.72727H15V7.27273H10.9091ZM7.5 5.81818C6.95751 5.81818 6.43724 6.04805 6.05365 6.45722C5.67005 6.86639 5.45455 7.42135 5.45455 8C5.45455 8.57865 5.67005 9.13361 6.05365 9.54278C6.43724 9.95195 6.95751 10.1818 7.5 10.1818C8.04249 10.1818 8.56276 9.95195 8.94635 9.54278C9.32995 9.13361 9.54545 8.57865 9.54545 8C9.54545 7.42135 9.32995 6.86639 8.94635 6.45722C8.56276 6.04805 8.04249 5.81818 7.5 5.81818ZM9.42955 11.0836L10.875 12.6255L11.8364 11.6L10.3909 10.0582L9.42955 11.0836ZM3.16364 11.6L4.125 12.6255L5.57045 11.0836L4.60909 10.0582L3.16364 11.6ZM6.81818 16H8.18182V11.6364H6.81818V16Z" fill="black"/>
</svg>
